<svg width="19" height="19" viewBox="0 0 19 19" fill="none" xmlns="http://www.w3.org/2000/svg">
<path d="M10.3335 11.6666L7.83345 9.16663M12.0087 2.91663V1.66663M15.2915 4.21718L16.1754 3.33329M15.2915 10.8333L16.1754 11.7172M8.67541 4.21718L7.79153 3.33329M16.5921 7.49996H17.8421M4.60959 17.3905L12.3073 9.69277C12.6373 9.36275 12.8023 9.19775 12.8642 9.00747C12.9185 8.8401 12.9185 8.65981 12.8642 8.49245C12.8023 8.30217 12.6373 8.13716 12.3073 7.80715L11.6929 7.19277C11.3629 6.86275 11.1979 6.69775 11.0076 6.63592C10.8403 6.58154 10.66 6.58154 10.4926 6.63592C10.3023 6.69775 10.1373 6.86275 9.80731 7.19277L2.10959 14.8905C1.77958 15.2205 1.61457 15.3855 1.55275 15.5758C1.49837 15.7431 1.49837 15.9234 1.55275 16.0908C1.61457 16.2811 1.77958 16.4461 2.10959 16.7761L2.72398 17.3905C3.05399 17.7205 3.219 17.8855 3.40927 17.9473C3.57664 18.0017 3.75693 18.0017 3.9243 17.9473C4.11457 17.8855 4.27958 17.7205 4.60959 17.3905Z" stroke="#98A2B3" stroke-width="1.66667" stroke-linecap="round" stroke-linejoin="round"/>
</svg>
