<svg width="20" height="20" viewBox="0 0 20 20" fill="none" xmlns="http://www.w3.org/2000/svg">
<g clip-path="url(#clip0_63_890)">
<path d="M4.99996 16.7393H7.1752C7.45882 16.7393 7.7407 16.773 8.01564 16.8405L10.314 17.3991C10.8127 17.5206 11.3323 17.5324 11.8362 17.4345L14.3774 16.9401C15.0487 16.8093 15.6663 16.4879 16.1502 16.0171L17.9482 14.2681C18.4617 13.7695 18.4617 12.9604 17.9482 12.4609C17.4859 12.0112 16.7539 11.9606 16.2309 12.3419L14.1355 13.8707C13.8354 14.0901 13.4702 14.2082 13.0947 14.2082H11.0712L12.3592 14.2081C13.0851 14.2081 13.6732 13.6361 13.6732 12.9299V12.6743C13.6732 12.0879 13.2629 11.5766 12.6784 11.4349L10.6905 10.9514C10.3669 10.873 10.0356 10.8333 9.70258 10.8333C8.89857 10.8333 7.4432 11.499 7.4432 11.499L4.99996 12.5207M1.66663 12.1667L1.66663 17C1.66663 17.4667 1.66663 17.7001 1.75745 17.8783C1.83735 18.0351 1.96483 18.1626 2.12163 18.2425C2.29989 18.3333 2.53325 18.3333 2.99996 18.3333H3.66663C4.13334 18.3333 4.36669 18.3333 4.54495 18.2425C4.70175 18.1626 4.82924 18.0351 4.90913 17.8783C4.99996 17.7001 4.99996 17.4667 4.99996 17V12.1667C4.99996 11.6999 4.99996 11.4666 4.90913 11.2883C4.82924 11.1315 4.70175 11.004 4.54495 10.9242C4.36669 10.8333 4.13334 10.8333 3.66663 10.8333H2.99996C2.53325 10.8333 2.29989 10.8333 2.12163 10.9242C1.96483 11.004 1.83735 11.1315 1.75745 11.2883C1.66663 11.4666 1.66663 11.6999 1.66663 12.1667ZM14.3261 2.99354C13.8288 1.95282 12.6821 1.40148 11.567 1.93364C10.4519 2.46579 9.97679 3.72781 10.4437 4.83568C10.7322 5.52038 11.5589 6.84999 12.1484 7.76585C12.3662 8.10425 12.4751 8.27345 12.6341 8.37243C12.7706 8.45733 12.9413 8.5031 13.1019 8.49779C13.2892 8.4916 13.4681 8.39952 13.8259 8.21535C14.7943 7.71692 16.1751 6.97879 16.7673 6.5301C17.7256 5.80409 17.9629 4.46964 17.2455 3.45519C16.5281 2.44075 15.2772 2.34093 14.3261 2.99354Z" stroke="#98A2B3" stroke-width="1.66667" stroke-linecap="round" stroke-linejoin="round"/>
</g>
<defs>
<clipPath id="clip0_63_890">
<rect width="20" height="20" fill="white"/>
</clipPath>
</defs>
</svg>
