<svg width="19" height="20" viewBox="0 0 19 20" fill="none" xmlns="http://www.w3.org/2000/svg">
<path d="M4.49973 16.667L11.8906 9.27614C12.2206 8.94613 12.3856 8.78112 12.5759 8.71929C12.7433 8.66491 12.9236 8.66491 13.0909 8.71929C13.2812 8.78112 13.4462 8.94613 13.7762 9.27614L17.3378 12.8377M8.25008 7.08333C8.25008 8.00381 7.50389 8.75 6.58341 8.75C5.66294 8.75 4.91675 8.00381 4.91675 7.08333C4.91675 6.16286 5.66294 5.41666 6.58341 5.41666C7.50389 5.41666 8.25008 6.16286 8.25008 7.08333ZM17.8334 10C17.8334 14.6024 14.1025 18.3333 9.50008 18.3333C4.89771 18.3333 1.16675 14.6024 1.16675 10C1.16675 5.39762 4.89771 1.66666 9.50008 1.66666C14.1025 1.66666 17.8334 5.39762 17.8334 10Z" stroke="#98A2B3" stroke-width="1.66667" stroke-linecap="round" stroke-linejoin="round"/>
</svg>
