<svg width="48" height="48" viewBox="0 0 48 48" fill="none" xmlns="http://www.w3.org/2000/svg">
<path d="M23.9995 44.0001C35.0452 44.0001 43.9995 35.0458 43.9995 24.0001C43.9995 12.9544 35.0452 4.00006 23.9995 4.00006C12.9538 4.00006 3.99951 12.9544 3.99951 24.0001C3.99951 35.0458 12.9538 44.0001 23.9995 44.0001Z" stroke="white" stroke-width="4" stroke-linecap="round" stroke-linejoin="round"/>
<path d="M18.9995 17.9307C18.9995 16.9762 18.9995 16.4989 19.199 16.2324C19.3728 16.0002 19.6389 15.8549 19.9283 15.8343C20.2603 15.8106 20.6618 16.0687 21.4647 16.5848L30.9059 22.6542C31.6027 23.1021 31.9511 23.3261 32.0714 23.6108C32.1765 23.8597 32.1765 24.1405 32.0714 24.3893C31.9511 24.6741 31.6027 24.898 30.9059 25.3459L21.4647 31.4153C20.6618 31.9315 20.2603 32.1896 19.9283 32.1659C19.6389 32.1452 19.3728 31.9999 19.199 31.7677C18.9995 31.5013 18.9995 31.024 18.9995 30.0694V17.9307Z" stroke="white" stroke-width="4" stroke-linecap="round" stroke-linejoin="round"/>
</svg>
