<svg width="19" height="14" viewBox="0 0 19 14" fill="none" xmlns="http://www.w3.org/2000/svg">
<path d="M17.8334 4.44277C17.8334 3.93792 17.8334 3.6855 17.7336 3.56861C17.647 3.46719 17.517 3.41337 17.3841 3.42383C17.2308 3.43589 17.0523 3.61438 16.6953 3.97136L13.6667 6.99996L16.6953 10.0286C17.0523 10.3855 17.2308 10.564 17.3841 10.5761C17.517 10.5866 17.647 10.5327 17.7336 10.4313C17.8334 10.3144 17.8334 10.062 17.8334 9.55715V4.44277Z" stroke="#B0BACB" stroke-width="1.66667" stroke-linecap="round" stroke-linejoin="round"/>
<path d="M1.16675 5.16663C1.16675 3.76649 1.16675 3.06643 1.43923 2.53165C1.67892 2.06124 2.06137 1.67879 2.53177 1.43911C3.06655 1.16663 3.76662 1.16663 5.16675 1.16663H9.66675C11.0669 1.16663 11.7669 1.16663 12.3017 1.43911C12.7721 1.67879 13.1546 2.06124 13.3943 2.53165C13.6667 3.06643 13.6667 3.76649 13.6667 5.16663V8.83329C13.6667 10.2334 13.6667 10.9335 13.3943 11.4683C13.1546 11.9387 12.7721 12.3211 12.3017 12.5608C11.7669 12.8333 11.0669 12.8333 9.66675 12.8333H5.16675C3.76662 12.8333 3.06655 12.8333 2.53177 12.5608C2.06137 12.3211 1.67892 11.9387 1.43923 11.4683C1.16675 10.9335 1.16675 10.2334 1.16675 8.83329V5.16663Z" stroke="#B0BACB" stroke-width="1.66667" stroke-linecap="round" stroke-linejoin="round"/>
</svg>
