<svg width="127" height="20" viewBox="0 0 127 20" fill="none" xmlns="http://www.w3.org/2000/svg">
<path d="M0.289773 0.0909085H3.02273L9.44886 15.7869H9.67046L16.0966 0.0909085H18.8295V19H16.6875V4.63352H16.5028L10.5938 19H8.52557L2.61648 4.63352H2.43182V19H0.289773V0.0909085ZM28.0312 19.2955C26.6647 19.2955 25.486 18.9938 24.495 18.3906C23.5101 17.7812 22.7499 16.9318 22.2144 15.8423C21.6851 14.7467 21.4204 13.4725 21.4204 12.0199C21.4204 10.5672 21.6851 9.28693 22.2144 8.17898C22.7499 7.06487 23.4947 6.19697 24.4488 5.57528C25.409 4.94744 26.5293 4.63352 27.8096 4.63352C28.5482 4.63352 29.2776 4.75663 29.9978 5.00284C30.718 5.24905 31.3735 5.64915 31.9644 6.20312C32.5553 6.75095 33.0262 7.47727 33.3771 8.3821C33.7279 9.28693 33.9034 10.401 33.9034 11.7244V12.6477H22.9715V10.7642H31.6874C31.6874 9.96401 31.5274 9.25 31.2073 8.62216C30.8934 7.99432 30.4441 7.49882 29.8593 7.13565C29.2807 6.77249 28.5975 6.59091 27.8096 6.59091C26.9417 6.59091 26.1908 6.80634 25.5568 7.23722C24.9289 7.66193 24.4457 8.21591 24.1072 8.89915C23.7687 9.58239 23.5994 10.3149 23.5994 11.0966V12.3523C23.5994 13.4233 23.784 14.3312 24.1534 15.076C24.5288 15.8146 25.049 16.3778 25.7137 16.7656C26.3785 17.1473 27.151 17.3381 28.0312 17.3381C28.6036 17.3381 29.1207 17.258 29.5823 17.098C30.0501 16.9318 30.4533 16.6856 30.7919 16.3594C31.1304 16.027 31.392 15.6146 31.5767 15.1222L33.6818 15.7131C33.4602 16.4271 33.0878 17.0549 32.5646 17.5966C32.0414 18.1321 31.3951 18.5507 30.6257 18.8523C29.8562 19.1477 28.9914 19.2955 28.0312 19.2955ZM42.3456 4.81818V6.66477H34.9962V4.81818H42.3456ZM37.1382 1.42045H39.3172V14.9375C39.3172 15.553 39.4064 16.0147 39.5849 16.3224C39.7696 16.6241 40.0035 16.8272 40.2867 16.9318C40.576 17.0303 40.8806 17.0795 41.2007 17.0795C41.4408 17.0795 41.6377 17.0672 41.7916 17.0426C41.9455 17.0118 42.0686 16.9872 42.1609 16.9688L42.6041 18.9261C42.4564 18.9815 42.2502 19.0369 41.9855 19.0923C41.7208 19.1539 41.3854 19.1847 40.9791 19.1847C40.3636 19.1847 39.7604 19.0523 39.1695 18.7876C38.5847 18.523 38.0984 18.1198 37.7107 17.5781C37.329 17.0365 37.1382 16.3532 37.1382 15.5284V1.42045ZM48.7566 19.3324C47.8579 19.3324 47.0423 19.1631 46.3099 18.8246C45.5774 18.4799 44.9957 17.9844 44.5648 17.3381C44.134 16.6856 43.9185 15.8977 43.9185 14.9744C43.9185 14.1619 44.0786 13.5033 44.3986 12.9986C44.7187 12.4877 45.1465 12.0876 45.682 11.7983C46.2175 11.509 46.8084 11.2936 47.4548 11.152C48.1072 11.0043 48.7628 10.8873 49.4214 10.8011C50.2831 10.6903 50.9817 10.6072 51.5173 10.5518C52.0589 10.4903 52.4529 10.3887 52.6991 10.2472C52.9514 10.1056 53.0776 9.85937 53.0776 9.50852V9.43466C53.0776 8.52367 52.8283 7.81581 52.3298 7.31108C51.8373 6.80634 51.0895 6.55398 50.0861 6.55398C49.0459 6.55398 48.2303 6.78172 47.6394 7.23722C47.0485 7.69271 46.633 8.17898 46.393 8.69602L44.3248 7.95739C44.6941 7.09564 45.1865 6.42472 45.8021 5.9446C46.4237 5.45833 47.1008 5.11979 47.8333 4.92898C48.5719 4.73201 49.2983 4.63352 50.0123 4.63352C50.4678 4.63352 50.991 4.68892 51.5819 4.79971C52.1789 4.90436 52.7545 5.12287 53.3084 5.45525C53.8686 5.78764 54.3333 6.2893 54.7026 6.96023C55.0719 7.63115 55.2566 8.52983 55.2566 9.65625V19H53.0776V17.0795H52.9668C52.8191 17.3873 52.5729 17.7166 52.2282 18.0675C51.8835 18.4183 51.4249 18.7169 50.8525 18.9631C50.28 19.2093 49.5814 19.3324 48.7566 19.3324ZM49.089 17.375C49.9507 17.375 50.6771 17.2057 51.268 16.8672C51.865 16.5286 52.3144 16.0916 52.616 15.5561C52.9237 15.0206 53.0776 14.4574 53.0776 13.8665V11.8722C52.9853 11.983 52.7822 12.0845 52.4682 12.1768C52.1605 12.263 51.8035 12.34 51.3972 12.4077C50.9971 12.4692 50.6063 12.5246 50.2246 12.5739C49.8492 12.617 49.5445 12.6539 49.3106 12.6847C48.7443 12.7585 48.2149 12.8786 47.7225 13.0447C47.2362 13.2048 46.8423 13.4479 46.5407 13.7741C46.2452 14.0942 46.0975 14.5312 46.0975 15.0852C46.0975 15.8423 46.3776 16.4148 46.9377 16.8026C47.504 17.1842 48.2211 17.375 49.089 17.375ZM58.0644 0.0909085H62.2562L67.8698 13.7926H68.0914L73.7051 0.0909085H77.8968V19H74.6099V6.00923H74.4345L69.2086 18.9446H66.7526L61.5268 5.98153H61.3514V19H58.0644V0.0909085ZM89.4783 13.0355V4.81818H92.8206V19H89.5798V16.4794H89.4321C89.112 17.2734 88.5858 17.9228 87.8533 18.4276C87.1269 18.9323 86.2313 19.1847 85.1665 19.1847C84.237 19.1847 83.4153 18.9785 82.7013 18.5661C81.9934 18.1475 81.4394 17.5412 81.0393 16.7472C80.6393 15.947 80.4392 14.9806 80.4392 13.848V4.81818H83.7815V13.331C83.7815 14.2296 84.0277 14.9437 84.5202 15.473C85.0126 16.0024 85.6589 16.267 86.4591 16.267C86.9515 16.267 87.4286 16.147 87.8902 15.907C88.3518 15.6669 88.7304 15.3099 89.0259 14.8359C89.3275 14.3558 89.4783 13.7557 89.4783 13.0355ZM106.426 8.56676L103.379 8.89915C103.293 8.59138 103.143 8.30208 102.927 8.03125C102.718 7.76042 102.435 7.5419 102.078 7.37571C101.721 7.20952 101.284 7.12642 100.767 7.12642C100.071 7.12642 99.4863 7.27722 99.0123 7.57883C98.5445 7.88044 98.3137 8.27131 98.3198 8.75142C98.3137 9.16383 98.4645 9.49929 98.7723 9.75781C99.0862 10.0163 99.6032 10.2287 100.323 10.3949L102.742 10.9119C104.084 11.2012 105.081 11.6598 105.734 12.2876C106.393 12.9155 106.725 13.7372 106.731 14.7528C106.725 15.6454 106.463 16.4332 105.946 17.1165C105.435 17.7936 104.724 18.3229 103.813 18.7045C102.902 19.0862 101.856 19.277 100.674 19.277C98.9384 19.277 97.5412 18.9138 96.4825 18.1875C95.4238 17.455 94.7929 16.4363 94.5897 15.1314L97.849 14.8175C97.9967 15.4576 98.3106 15.9408 98.7907 16.267C99.2708 16.5933 99.8956 16.7564 100.665 16.7564C101.459 16.7564 102.096 16.5933 102.576 16.267C103.062 15.9408 103.306 15.5376 103.306 15.0575C103.306 14.6513 103.149 14.3158 102.835 14.0511C102.527 13.7865 102.047 13.5833 101.394 13.4418L98.9754 12.9339C97.6151 12.6508 96.6087 12.1738 95.9562 11.5028C95.3037 10.8258 94.9806 9.97017 94.9867 8.93608C94.9806 8.06203 95.2176 7.30492 95.6977 6.66477C96.1839 6.01847 96.858 5.51989 97.7197 5.16903C98.5876 4.81203 99.5878 4.63352 100.72 4.63352C102.382 4.63352 103.69 4.98745 104.644 5.69531C105.605 6.40317 106.199 7.36032 106.426 8.56676ZM114.726 19.277C113.304 19.277 112.076 18.9815 111.042 18.3906C110.014 17.7936 109.223 16.9503 108.669 15.8608C108.115 14.7652 107.838 13.4756 107.838 11.9922C107.838 10.5334 108.115 9.25308 108.669 8.15128C109.229 7.04332 110.011 6.18158 111.014 5.56605C112.017 4.94437 113.196 4.63352 114.55 4.63352C115.424 4.63352 116.249 4.77509 117.025 5.05824C117.806 5.33523 118.496 5.7661 119.093 6.35085C119.696 6.93561 120.17 7.6804 120.515 8.58523C120.859 9.4839 121.032 10.5549 121.032 11.7983V12.8232H109.407V10.5703H117.828C117.822 9.93016 117.683 9.36079 117.412 8.86222C117.141 8.35748 116.763 7.96046 116.277 7.67116C115.797 7.38187 115.236 7.23722 114.596 7.23722C113.913 7.23722 113.313 7.40341 112.796 7.73579C112.279 8.06203 111.876 8.4929 111.586 9.02841C111.303 9.55776 111.159 10.1394 111.152 10.7734V12.7401C111.152 13.5649 111.303 14.2727 111.605 14.8636C111.906 15.4484 112.328 15.8977 112.87 16.2116C113.411 16.5194 114.045 16.6733 114.772 16.6733C115.258 16.6733 115.698 16.6056 116.092 16.4702C116.486 16.3286 116.828 16.1224 117.117 15.8516C117.406 15.5807 117.625 15.2453 117.772 14.8452L120.893 15.196C120.696 16.0208 120.321 16.741 119.767 17.3565C119.219 17.9659 118.517 18.4399 117.662 18.7784C116.806 19.1108 115.827 19.277 114.726 19.277ZM124.878 19.2031C124.318 19.2031 123.838 19.0062 123.438 18.6122C123.038 18.2183 122.841 17.7382 122.847 17.1719C122.841 16.6179 123.038 16.1439 123.438 15.75C123.838 15.3561 124.318 15.1591 124.878 15.1591C125.42 15.1591 125.891 15.3561 126.291 15.75C126.697 16.1439 126.903 16.6179 126.909 17.1719C126.903 17.5473 126.805 17.889 126.614 18.1967C126.429 18.5045 126.183 18.7507 125.875 18.9354C125.574 19.1139 125.241 19.2031 124.878 19.2031Z" fill="url(#paint0_linear_1_2686)"/>
<defs>
<linearGradient id="paint0_linear_1_2686" x1="-2" y1="9.5" x2="129" y2="9.5" gradientUnits="userSpaceOnUse">
<stop stop-color="#101828"/>
<stop offset="1" stop-color="#46398E"/>
</linearGradient>
</defs>
</svg>
